# xmcd CD database file
#
# Track frame offsets:
#	150
#	17177
#	44227
#	66890
#	86345
#	106245
#	128190
#	143872
#	158922
#
# Disc length: 2366 seconds
#
# Revision: 0
# Processed by: cddbd v1.5.1PL0 Copyright (c) Steve Scherf et al.
# Submitted via: CDex 1.51
#
DISCID=7b093c09
DTITLE=David Coverdale - Whitesnake
DYEAR=1900
DGENRE=Hard Rock
TTITLE0=Lady
TTITLE1=Blindeman
TTITLE2=Goldies Place
TTITLE3=Whitesnake
TTITLE4=Time On My Side
TTITLE5=Peace Loven' Man
TTITLE6=Sunny Days
TTITLE7=Hole In The Sky
TTITLE8=Celebration
EXTD=
EXTT0=
EXTT1=
EXTT2=
EXTT3=
EXTT4=
EXTT5=
EXTT6=
EXTT7=
EXTT8=
PLAYORDER=
